<svg width="434" height="525" viewBox="0 0 434 525" fill="none" xmlns="http://www.w3.org/2000/svg">
    <g clip-path="url(#clip0_0_1)">
        <path
            d="M145.667 523.45C112.684 517.82 86.864 492.352 70.6667 464.323C70.8444 464.189 102.625 459.066 106.517 467.269C120.279 484.683 141.601 499.266 164.709 496.244C191.331 489.767 209.21 467.139 228.68 449.53C242.745 436.416 258.007 421.714 277.773 418.907C301.459 418.755 325.144 418.603 348.83 418.452C346.402 428.283 341.501 437.236 336.909 446.192C317.113 446.737 296.997 446.01 277.399 447.346C254.025 459.129 238.616 481.473 218.302 497.393C198.689 514.928 172.749 529.05 145.667 523.45ZM230.362 505.926C237.341 499.398 244.139 492.674 251.329 486.375C266.282 495.603 284.924 499.811 301.865 493.95C329.777 485.333 348.05 459.414 358.629 433.45C371.931 399.886 374.999 362.949 371.193 327.264C366.537 290.077 352.36 251.554 322.387 227.479C283.69 197.43 260.264 229.593 254.126 218.789C248.356 213.663 242.713 208.389 236.611 203.653C254.756 191.217 277.029 182.925 299.212 187.085C332.229 192.982 358.38 218.271 374.347 246.646C390.775 275.516 398.924 308.81 400.293 341.846C400.617 362.119 400.605 382.453 396.398 402.392C389.273 440.646 372.62 479.18 341.684 504.029C324.658 517.441 303.228 525.585 281.401 524.314C262.905 524.28 245.506 515.947 230.362 505.926ZM150.853 449.5L30 449.174V421.151C75.0924 421.505 120.331 420.973 165.332 421.88C181.998 426.544 194.838 438.703 207.412 449.958C201.433 456.934 193.999 463.038 186.94 469.089C176.375 459.876 166.043 448.13 150.853 449.5ZM407.393 418.494L429.667 418.859L430.027 446.526H398.556C401.798 437.286 404.98 427.993 407.393 418.494ZM50.3353 300.006C50.9438 299.442 84.4064 292.92 77.781 305C69.7181 340.049 71.0532 378.626 78.1447 407.193H49.5161C45.1085 384.52 40.0571 346.584 50.3353 300.006ZM172.216 396.276C161.601 393.019 156.333 383.506 156.333 370.712C156.642 358.035 155.721 345.083 156.781 332.572C160.078 321.926 170.917 315.242 181.874 316.457C189.576 317.267 196.416 322.996 199.837 329.643C204.263 342.159 202.973 355.783 203.772 368.82C203.772 377.66 200.271 386.532 193.278 392.345C187.292 396.881 179.434 398.296 172.216 396.276ZM266.216 396.276C255.601 393.019 250.333 381.893 250.333 370.712C250.643 358.035 249.721 345.083 250.78 332.572C254.078 321.926 264.917 315.243 275.874 316.457C283.568 317.25 290.257 322.946 293.81 329.516C296.72 340.377 297.667 354.122 297.667 363.513C297.701 372.736 297.221 383.264 289.42 390.021C283.975 396.625 274.148 398.476 266.216 396.276ZM225.784 249.845C207.221 232.902 186.043 214.388 159.577 213.78C139.344 214.485 121.012 225.568 108.066 240.677C105.022 243.284 71.3912 244.674 74.204 239.808C86.4424 220.377 103.289 202.942 124.775 193.984C148.923 182.376 178.642 183.813 201.838 197.21C231.375 211.97 251.702 239.241 278.333 258.014C293.74 263.7 316.901 261.184 334.017 261.191C339.959 269.812 344.2 279.463 347.981 289.191C329.151 288.879 284.912 289.706 279.262 288.336C257.447 281.99 242.253 264.409 225.784 249.845ZM397.191 261.193H433.333V289.193H406.625C403.663 279.805 400.735 270.383 397.191 261.193ZM36.7535 256.526H166.617C176.677 253.681 184.372 245.699 192.816 240.526C200.1 246.264 207.492 251.874 214.216 258.277C201.036 269.381 186.67 281.693 169.173 284.197C124.116 284.319 79.0578 284.44 34.0001 284.562C34.9764 277.283 33.9886 261.315 36.7535 256.526Z"
            fill="currentColor" />
    </g>
    <rect x="14" y="41" width="23" height="484" fill="currentColor" />
    <circle cx="26" cy="26" r="26" fill="currentColor" />
    <defs>
        <clipPath id="clip0_0_1">
            <rect width="404" height="339" fill="white" transform="translate(30 186)" />
        </clipPath>
    </defs>
</svg>
    